Gait_normal_05_analogdata.mot
version=1
nRows=38
nColumns=19
inDegrees=yes
endheader
time	1_ground_force_vx	1_ground_force_vy	1_ground_force_vz	1_ground_force_px	1_ground_force_py	1_ground_force_pz	1_ground_torque_x	1_ground_torque_y	1_ground_torque_z	2_ground_force_vx	2_ground_force_vy	2_ground_force_vz	2_ground_force_px	2_ground_force_py	2_ground_force_pz	2_ground_torque_x	2_ground_torque_y	2_ground_torque_z
0.675000	-46.919187	685.680908	58.269097	-0.123744	0.000000	-0.328594	0.127116	-1.857689	-0.157866	0.000000	0.000000	-0.000000	-0.200000	0.000000	0.302000	0.000000	0.000000	-0.000000
0.676000	-45.404729	688.830261	57.738282	-0.124517	0.000000	-0.328201	0.124032	-1.881679	-0.157724	0.000000	0.000000	-0.000000	-0.200000	0.000000	0.302000	0.000000	0.000000	-0.000000
0.677000	-47.008275	691.629639	58.269097	-0.124235	0.000000	-0.327746	0.130749	-1.923695	-0.162069	0.000000	0.000000	-0.000000	-0.200000	0.000000	0.302000	0.000000	0.000000	-0.000000
0.678000	-46.117418	688.480286	58.180630	-0.124183	0.000000	-0.328591	0.141320	-2.109742	-0.178286	0.000000	0.000000	-0.000000	-0.200000	0.000000	0.302000	0.000000	0.000000	-0.000000
0.679000	-46.741018	684.981079	60.038483	-0.124059	0.000000	-0.328067	0.141034	-2.066826	-0.181157	0.000000	0.000000	-0.000000	-0.200000	0.000000	0.302000	0.000000	0.000000	-0.000000
0.680000	-46.295587	687.430542	61.542462	-0.124245	0.000000	-0.327483	0.152254	-2.260779	-0.202397	0.000000	0.000000	-0.000000	-0.200000	0.000000	0.302000	0.000000	0.000000	-0.000000
0.681000	-45.226557	687.080627	60.834706	-0.124575	0.000000	-0.327336	0.125471	-1.906146	-0.168772	0.000000	0.000000	-0.000000	-0.200000	0.000000	0.302000	0.000000	0.000000	-0.000000
0.682000	-46.473761	687.080627	62.250214	-0.124782	0.000000	-0.327331	0.128665	-1.902214	-0.172343	0.000000	0.000000	-0.000000	-0.200000	0.000000	0.302000	0.000000	0.000000	-0.000000
0.683000	-45.850161	696.878479	62.604092	-0.125623	0.000000	-0.325760	0.129609	-1.969927	-0.176968	0.000000	0.000000	-0.000000	-0.200000	0.000000	0.302000	0.000000	0.000000	-0.000000
0.684000	-45.226557	693.729126	61.277051	-0.125579	0.000000	-0.326256	0.142402	-2.184307	-0.192940	0.000000	0.000000	-0.000000	-0.200000	0.000000	0.302000	0.000000	0.000000	-0.000000
0.685000	-47.453703	689.180176	63.046437	-0.124756	0.000000	-0.326215	0.151948	-2.206770	-0.201876	0.000000	0.000000	-0.000000	-0.200000	0.000000	0.302000	0.000000	0.000000	-0.000000
0.686000	-46.117419	687.080627	64.108071	-0.124720	0.000000	-0.326397	0.128276	-1.911124	-0.178317	0.000000	0.000000	-0.000000	-0.200000	0.000000	0.302000	0.000000	0.000000	-0.000000
0.687000	-45.939246	685.330994	65.788987	-0.124856	0.000000	-0.326371	0.146123	-2.179896	-0.209261	0.000000	0.000000	-0.000000	-0.200000	0.000000	0.302000	0.000000	0.000000	-0.000000
0.688000	-45.850161	682.881531	66.496735	-0.124325	0.000000	-0.325532	0.141441	-2.106595	-0.205133	0.000000	0.000000	-0.000000	-0.200000	0.000000	0.302000	0.000000	0.000000	-0.000000
0.689000	-44.959300	691.629639	66.496735	-0.125565	0.000000	-0.326087	0.130300	-2.004465	-0.192719	0.000000	0.000000	-0.000000	-0.200000	0.000000	0.302000	0.000000	0.000000	-0.000000
0.690000	-44.602957	681.481873	66.850617	-0.125028	0.000000	-0.326331	0.137002	-2.093236	-0.205338	0.000000	0.000000	-0.000000	-0.200000	0.000000	0.302000	0.000000	0.000000	-0.000000
0.691000	-44.870215	682.181702	68.000710	-0.125178	0.000000	-0.325781	0.126608	-1.924871	-0.191873	0.000000	0.000000	-0.000000	-0.200000	0.000000	0.302000	0.000000	0.000000	-0.000000
0.692000	-43.801185	683.231445	69.150811	-0.125648	0.000000	-0.325267	0.129928	-2.026675	-0.205123	0.000000	0.000000	-0.000000	-0.200000	0.000000	0.302000	0.000000	0.000000	-0.000000
0.693000	-43.712100	685.680908	69.504693	-0.125520	0.000000	-0.324429	0.137579	-2.158104	-0.218758	0.000000	0.000000	-0.000000	-0.200000	0.000000	0.302000	0.000000	0.000000	-0.000000
0.694000	-44.246616	685.330994	70.212441	-0.125426	0.000000	-0.324506	0.138979	-2.152635	-0.220538	0.000000	0.000000	-0.000000	-0.200000	0.000000	0.302000	0.000000	0.000000	-0.000000
0.695000	-44.068443	682.881531	71.274079	-0.124669	0.000000	-0.324593	0.139930	-2.168341	-0.226315	0.000000	0.000000	-0.000000	-0.200000	0.000000	0.302000	0.000000	0.000000	-0.000000
0.696000	-43.979358	681.831787	71.716424	-0.124132	0.000000	-0.325647	0.135665	-2.103283	-0.221228	0.000000	0.000000	-0.000000	-0.200000	0.000000	0.302000	0.000000	0.000000	-0.000000
0.697000	-43.801185	674.133484	72.424172	-0.124343	0.000000	-0.327027	0.136582	-2.102098	-0.225835	0.000000	0.000000	-0.000000	-0.200000	0.000000	0.302000	0.000000	0.000000	-0.000000
0.698000	-42.910328	669.584473	74.458970	-0.124332	0.000000	-0.325240	0.125519	-1.958632	-0.217803	0.000000	0.000000	-0.000000	-0.200000	0.000000	0.302000	0.000000	0.000000	-0.000000
0.699000	-42.019470	676.932861	75.078256	-0.125399	0.000000	-0.324212	0.131159	-2.112974	-0.234349	0.000000	0.000000	-0.000000	-0.200000	0.000000	0.302000	0.000000	0.000000	-0.000000
0.700000	-42.464901	677.632690	74.989785	-0.125274	0.000000	-0.323854	0.127282	-2.031108	-0.224771	0.000000	0.000000	-0.000000	-0.200000	0.000000	0.302000	0.000000	0.000000	-0.000000
0.701000	-42.643070	676.932861	75.343660	-0.125405	0.000000	-0.324145	0.130307	-2.068539	-0.230231	0.000000	0.000000	-0.000000	-0.200000	0.000000	0.302000	0.000000	0.000000	-0.000000
0.702000	-42.910328	670.634277	75.609071	-0.125154	0.000000	-0.324280	0.146193	-2.284813	-0.257596	0.000000	0.000000	-0.000000	-0.200000	0.000000	0.302000	0.000000	0.000000	-0.000000
0.703000	-42.375817	672.033936	77.555391	-0.124999	0.000000	-0.323534	0.154873	-2.456119	-0.283446	0.000000	0.000000	-0.000000	-0.200000	0.000000	0.302000	0.000000	0.000000	-0.000000
0.704000	-41.128613	670.984192	77.289987	-0.125056	0.000000	-0.323679	0.127707	-2.083454	-0.239991	0.000000	0.000000	-0.000000	-0.200000	0.000000	0.302000	0.000000	0.000000	-0.000000
0.705000	-41.841301	670.984192	77.732332	-0.125892	0.000000	-0.323453	0.141690	-2.272193	-0.263230	0.000000	0.000000	-0.000000	-0.200000	0.000000	0.302000	0.000000	0.000000	-0.000000
0.706000	-40.772271	673.083740	79.236307	-0.125970	0.000000	-0.321758	0.132340	-2.184721	-0.257188	0.000000	0.000000	-0.000000	-0.200000	0.000000	0.302000	0.000000	0.000000	-0.000000
0.707000	-39.970497	673.083740	77.113046	-0.126160	0.000000	-0.322492	0.142867	-2.405806	-0.275625	0.000000	0.000000	-0.000000	-0.200000	0.000000	0.302000	0.000000	0.000000	-0.000000
0.708000	-43.266675	669.584473	78.528550	-0.126060	0.000000	-0.322299	0.166934	-2.583432	-0.302984	0.881879	20.966444	3.810340	-0.286557	0.000000	0.140078	-0.002447	-0.058174	-0.010572
0.709000	-41.039529	665.735352	80.563348	-0.125598	0.000000	-0.322003	0.128906	-2.091085	-0.253051	5.156370	22.020723	8.503094	-0.297784	0.000000	0.125641	0.110190	0.470577	0.181709
0.710000	-40.326840	663.985718	81.448038	-0.126193	0.000000	-0.322575	0.154756	-2.548067	-0.312560	2.484812	22.020723	11.247911	-0.286023	0.000000	0.120962	0.007152	0.063384	0.032376
0.711000	-39.881414	660.136597	81.978853	-0.125283	0.000000	-0.321955	0.146092	-2.418183	-0.300301	3.553436	21.317871	9.299976	-0.309870	0.000000	0.114545	0.043860	0.263127	0.114790
0.712000	-39.079641	664.335632	83.040483	-0.126369	0.000000	-0.322061	0.121224	-2.060744	-0.257588	1.594293	22.020723	10.096858	-0.292448	0.000000	0.107709	-0.007174	-0.099094	-0.045436
